<?xml version="1.0" encoding="UTF-8"?>
<svg width="20px" height="20px" viewBox="0 0 20 20" version="1.1" xmlns="http://www.w3.org/2000/svg" xmlns:xlink="http://www.w3.org/1999/xlink">
    <title>common_btn_question</title>
    <g id="common_btn_question" stroke="none" stroke-width="1" fill="none" fill-rule="evenodd">
        <path d="M9.993,3.7 C11.7348604,3.7 13.311413,4.40537812 14.452627,5.54545197 C15.5940594,6.68574409 16.3,8.26091754 16.3,10 C16.3,11.7390825 15.5940594,13.3142559 14.452627,14.454548 C13.311413,15.5946219 11.7348604,16.3 9.993,16.3 C8.25492078,16.3 6.68213305,15.5948244 5.5436718,14.4552236 C4.40437595,13.3147873 3.7,11.7393275 3.7,10 C3.7,8.2606725 4.40437595,6.68521273 5.5436718,5.54477644 C6.68213305,4.40517559 8.25492078,3.7 9.993,3.7 L9.993,3.7 Z" id="common_icon_tooltip" stroke="#999999" stroke-width="1.4"></path>
        <path d="M7.5,8.21081081 L8.77027027,8.21081081 C8.81351351,7.55135135 9.26216216,7.12972973 9.95945946,7.12972973 C10.6405405,7.12972973 11.0945946,7.53513514 11.0945946,8.0972973 C11.0945946,8.58783784 10.9038288,8.86944444 10.3557558,9.22523774 L10.1972973,9.32432432 C9.45135135,9.76216216 9.13783784,10.2486486 9.18648649,11.0594595 L9.19189189,11.427027 L10.4459459,11.427027 L10.4459459,11.1189189 C10.4459459,10.5837838 10.6459459,10.3081081 11.3540541,9.89189189 C12.0891892,9.45405405 12.5,8.87567568 12.5,8.04864865 C12.5,6.85405405 11.5108108,6 10.0297297,6 C8.42432432,6 7.54324324,6.92972973 7.5,8.21081081 Z M9.87837838,14.0054054 C9.33783784,14.0054054 8.98108108,13.6648649 8.98108108,13.1459459 C8.98108108,12.6216216 9.33783784,12.2810811 9.87837838,12.2810811 C10.4297297,12.2810811 10.7756757,12.6216216 10.7756757,13.1459459 C10.7756757,13.6648649 10.4297297,14.0054054 9.87837838,14.0054054 Z" id="?" fill="#999999" fill-rule="nonzero"></path>
    </g>
</svg>